# xmcd CD database file
#
# Track frame offsets:
#	150
#	10220
#	25392
#	40640
#	55740
#	66335
#	82095
#	91425
#	111462
#	122112
#	138427
#	152840
#
# Disc length: 2206 seconds
#
# Revision: 0
# Processed by: cddbd v1.5.2PL0 Copyright (c) Steve Scherf et al.
# Submitted via: CDex 1.70beta2
#
DISCID=a3089c0c
DTITLE=Dorothy Donegan - Donnybook with Donegan
DYEAR=1900
DGENRE=Jazz
TTITLE0=A foggy day
TTITLE1=September in the rain
TTITLE2=I've got you under my skin
TTITLE3=The D. D. blues
TTITLE4=Day in - day out
TTITLE5=Lover
TTITLE6=Tea for two
TTITLE7=Moonlight in Vermont
TTITLE8=Thou swell
TTITLE9=I only have eyes for you
TTITLE10=I'll remember April
TTITLE11=Bye bye blackbird
EXTD=
EXTT0=
EXTT1=
EXTT2=
EXTT3=
EXTT4=
EXTT5=
EXTT6=
EXTT7=
EXTT8=
EXTT9=
EXTT10=
EXTT11=
PLAYORDER=
